<mxfile host="app.diagrams.net" modified="2024-03-06T10:23:27.327Z" agent="Mozilla/5.0 (Windows NT 10.0; Win64; x64) AppleWebKit/537.36 (KHTML, like Gecko) Chrome/122.0.0.0 Safari/537.36" etag="BxMMRZjRr7qYJbhP2PKa" version="24.0.0" type="device">
  <diagram name="Сторінка-1" id="18cezhFAS_hDzTXBplz1">
    <mxGraphModel dx="1050" dy="1725" grid="0" gridSize="10" guides="1" tooltips="1" connect="1" arrows="1" fold="1" page="1" pageScale="1" pageWidth="827" pageHeight="1169" math="0" shadow="0">
      <root>
        <mxCell id="0" />
        <mxCell id="1" parent="0" />
        <mxCell id="9VVeeTWKTFK5gmpBHJWq-18" value="" style="edgeStyle=orthogonalEdgeStyle;html=1;endArrow=block;elbow=vertical;startArrow=none;endFill=1;strokeColor=#545B64;rounded=0;entryX=0;entryY=0.5;entryDx=0;entryDy=0;entryPerimeter=0;" parent="1" target="9VVeeTWKTFK5gmpBHJWq-4" edge="1">
          <mxGeometry width="100" relative="1" as="geometry">
            <mxPoint x="120" y="224.5" as="sourcePoint" />
            <mxPoint x="220" y="224.5" as="targetPoint" />
          </mxGeometry>
        </mxCell>
        <mxCell id="9VVeeTWKTFK5gmpBHJWq-21" value="" style="group" parent="1" vertex="1" connectable="0">
          <mxGeometry x="219" y="186" width="110" height="108" as="geometry" />
        </mxCell>
        <mxCell id="9VVeeTWKTFK5gmpBHJWq-4" value="" style="sketch=0;points=[[0,0,0],[0.25,0,0],[0.5,0,0],[0.75,0,0],[1,0,0],[0,1,0],[0.25,1,0],[0.5,1,0],[0.75,1,0],[1,1,0],[0,0.25,0],[0,0.5,0],[0,0.75,0],[1,0.25,0],[1,0.5,0],[1,0.75,0]];outlineConnect=0;fontColor=#232F3E;fillColor=#E7157B;strokeColor=#ffffff;dashed=0;verticalLabelPosition=bottom;verticalAlign=top;align=center;html=1;fontSize=12;fontStyle=0;aspect=fixed;shape=mxgraph.aws4.resourceIcon;resIcon=mxgraph.aws4.appsync;" parent="9VVeeTWKTFK5gmpBHJWq-21" vertex="1">
          <mxGeometry x="11" width="78" height="78" as="geometry" />
        </mxCell>
        <mxCell id="9VVeeTWKTFK5gmpBHJWq-5" value="&lt;span style=&quot;font-family: Helvetica;&quot;&gt;AWS AppSync API&lt;/span&gt;" style="text;html=1;align=center;verticalAlign=middle;resizable=0;points=[];autosize=1;strokeColor=none;fillColor=none;fontFamily=ArialMT;fontStyle=0;fontSize=12;fontSource=https%3A%2F%2Fgithub.com%2Fnord-lancer%2Fkaggle-dataset-to-aws-glue-table%2Fblob%2Fmain%2Fdiagrams%2Ffonts%2FArial%2FArialMT.woff;" parent="9VVeeTWKTFK5gmpBHJWq-21" vertex="1">
          <mxGeometry x="-10" y="78" width="120" height="30" as="geometry" />
        </mxCell>
        <mxCell id="9VVeeTWKTFK5gmpBHJWq-22" value="" style="group" parent="1" vertex="1" connectable="0">
          <mxGeometry x="404.5" y="189" width="100" height="102" as="geometry" />
        </mxCell>
        <mxCell id="9VVeeTWKTFK5gmpBHJWq-3" value="" style="outlineConnect=0;dashed=0;verticalLabelPosition=bottom;verticalAlign=top;align=center;html=1;shape=mxgraph.aws3.lambda_function;fillColor=#F58534;gradientColor=none;" parent="9VVeeTWKTFK5gmpBHJWq-22" vertex="1">
          <mxGeometry x="15.5" width="69" height="72" as="geometry" />
        </mxCell>
        <mxCell id="9VVeeTWKTFK5gmpBHJWq-6" value="&lt;font style=&quot;font-size: 12px;&quot; face=&quot;Helvetica&quot;&gt;AWS Lambda&lt;/font&gt;" style="text;html=1;align=center;verticalAlign=middle;resizable=0;points=[];autosize=1;strokeColor=none;fillColor=none;fontFamily=ArialMT;fontStyle=0;fontSize=12;fontSource=https%3A%2F%2Fgithub.com%2Fnord-lancer%2Fkaggle-dataset-to-aws-glue-table%2Fblob%2Fmain%2Fdiagrams%2Ffonts%2FArial%2FArialMT.woff;" parent="9VVeeTWKTFK5gmpBHJWq-22" vertex="1">
          <mxGeometry y="72" width="100" height="30" as="geometry" />
        </mxCell>
        <mxCell id="9VVeeTWKTFK5gmpBHJWq-26" value="" style="group" parent="1" vertex="1" connectable="0">
          <mxGeometry x="424.5" y="-10" width="60" height="90" as="geometry" />
        </mxCell>
        <mxCell id="9VVeeTWKTFK5gmpBHJWq-7" value="" style="shape=datastore;whiteSpace=wrap;html=1;" parent="9VVeeTWKTFK5gmpBHJWq-26" vertex="1">
          <mxGeometry width="60" height="60" as="geometry" />
        </mxCell>
        <mxCell id="9VVeeTWKTFK5gmpBHJWq-8" value="&lt;font style=&quot;font-size: 12px;&quot; face=&quot;Helvetica&quot;&gt;Kaggle&lt;/font&gt;" style="text;html=1;align=center;verticalAlign=middle;resizable=0;points=[];autosize=1;strokeColor=none;fillColor=none;fontFamily=ArialMT;fontStyle=0;fontSize=12;fontSource=https%3A%2F%2Fgithub.com%2Fnord-lancer%2Fkaggle-dataset-to-aws-glue-table%2Fblob%2Fmain%2Fdiagrams%2Ffonts%2FArial%2FArialMT.woff;" parent="9VVeeTWKTFK5gmpBHJWq-26" vertex="1">
          <mxGeometry y="60" width="60" height="30" as="geometry" />
        </mxCell>
        <mxCell id="9VVeeTWKTFK5gmpBHJWq-27" value="" style="edgeStyle=orthogonalEdgeStyle;html=1;endArrow=block;elbow=vertical;startArrow=none;endFill=1;strokeColor=#545B64;rounded=0;entryX=0;entryY=0.5;entryDx=0;entryDy=0;entryPerimeter=0;" parent="1" edge="1">
          <mxGeometry width="100" relative="1" as="geometry">
            <mxPoint x="310" y="224.5" as="sourcePoint" />
            <mxPoint x="420" y="225" as="targetPoint" />
          </mxGeometry>
        </mxCell>
        <mxCell id="9VVeeTWKTFK5gmpBHJWq-29" value="" style="edgeStyle=orthogonalEdgeStyle;html=1;endArrow=block;elbow=vertical;startArrow=none;endFill=1;strokeColor=#545B64;rounded=0;exitX=1;exitY=0.5;exitDx=0;exitDy=0;exitPerimeter=0;" parent="1" source="9VVeeTWKTFK5gmpBHJWq-3" target="9VVeeTWKTFK5gmpBHJWq-14" edge="1">
          <mxGeometry width="100" relative="1" as="geometry">
            <mxPoint x="500" y="225" as="sourcePoint" />
            <mxPoint x="600" y="224.91" as="targetPoint" />
          </mxGeometry>
        </mxCell>
        <mxCell id="9VVeeTWKTFK5gmpBHJWq-31" value="" style="edgeStyle=orthogonalEdgeStyle;html=1;endArrow=block;elbow=vertical;startArrow=none;endFill=1;strokeColor=#545B64;rounded=0;entryX=0;entryY=0.5;entryDx=0;entryDy=0;entryPerimeter=0;" parent="1" source="9VVeeTWKTFK5gmpBHJWq-3" target="9VVeeTWKTFK5gmpBHJWq-10" edge="1">
          <mxGeometry width="100" relative="1" as="geometry">
            <mxPoint x="499" y="235" as="sourcePoint" />
            <mxPoint x="616" y="235" as="targetPoint" />
            <Array as="points">
              <mxPoint x="540" y="225" />
              <mxPoint x="540" y="426" />
            </Array>
          </mxGeometry>
        </mxCell>
        <mxCell id="9VVeeTWKTFK5gmpBHJWq-34" value="" style="group" parent="1" vertex="1" connectable="0">
          <mxGeometry x="68" y="200" width="50" height="80" as="geometry" />
        </mxCell>
        <mxCell id="9VVeeTWKTFK5gmpBHJWq-1" value="" style="sketch=0;pointerEvents=1;shadow=0;dashed=0;html=1;strokeColor=none;fillColor=#505050;labelPosition=center;verticalLabelPosition=bottom;verticalAlign=top;outlineConnect=0;align=center;shape=mxgraph.office.users.user;" parent="9VVeeTWKTFK5gmpBHJWq-34" vertex="1">
          <mxGeometry x="2" width="46" height="50" as="geometry" />
        </mxCell>
        <mxCell id="9VVeeTWKTFK5gmpBHJWq-33" value="User" style="text;html=1;align=center;verticalAlign=middle;resizable=0;points=[];autosize=1;strokeColor=none;fillColor=none;" parent="9VVeeTWKTFK5gmpBHJWq-34" vertex="1">
          <mxGeometry y="50" width="50" height="30" as="geometry" />
        </mxCell>
        <mxCell id="CS1avsgJ7B1qZROQorwI-1" value="AWS Cloud" style="points=[[0,0],[0.25,0],[0.5,0],[0.75,0],[1,0],[1,0.25],[1,0.5],[1,0.75],[1,1],[0.75,1],[0.5,1],[0.25,1],[0,1],[0,0.75],[0,0.5],[0,0.25]];outlineConnect=0;gradientColor=none;html=1;whiteSpace=wrap;fontSize=12;fontStyle=0;container=1;pointerEvents=0;collapsible=0;recursiveResize=0;shape=mxgraph.aws4.group;grIcon=mxgraph.aws4.group_aws_cloud_alt;strokeColor=#232F3E;fillColor=none;verticalAlign=top;align=left;spacingLeft=30;fontColor=#232F3E;dashed=0;" parent="1" vertex="1">
          <mxGeometry x="210" y="147" width="668" height="353" as="geometry" />
        </mxCell>
        <mxCell id="CS1avsgJ7B1qZROQorwI-3" value="Save Dataset&amp;nbsp;&lt;div&gt;to S3 Bucket&lt;/div&gt;" style="text;html=1;align=center;verticalAlign=middle;resizable=0;points=[];autosize=1;strokeColor=none;fillColor=none;" parent="CS1avsgJ7B1qZROQorwI-1" vertex="1">
          <mxGeometry x="357" y="40" width="100" height="40" as="geometry" />
        </mxCell>
        <mxCell id="9VVeeTWKTFK5gmpBHJWq-23" value="" style="group" parent="CS1avsgJ7B1qZROQorwI-1" vertex="1" connectable="0">
          <mxGeometry x="471" y="39" width="110" height="108" as="geometry" />
        </mxCell>
        <mxCell id="9VVeeTWKTFK5gmpBHJWq-14" value="" style="sketch=0;points=[[0,0,0],[0.25,0,0],[0.5,0,0],[0.75,0,0],[1,0,0],[0,1,0],[0.25,1,0],[0.5,1,0],[0.75,1,0],[1,1,0],[0,0.25,0],[0,0.5,0],[0,0.75,0],[1,0.25,0],[1,0.5,0],[1,0.75,0]];outlineConnect=0;fontColor=#232F3E;fillColor=#7AA116;strokeColor=#ffffff;dashed=0;verticalLabelPosition=bottom;verticalAlign=top;align=center;html=1;fontSize=12;fontStyle=0;aspect=fixed;shape=mxgraph.aws4.resourceIcon;resIcon=mxgraph.aws4.s3;" parent="9VVeeTWKTFK5gmpBHJWq-23" vertex="1">
          <mxGeometry x="16" width="78" height="78" as="geometry" />
        </mxCell>
        <mxCell id="9VVeeTWKTFK5gmpBHJWq-15" value="&lt;font style=&quot;font-size: 12px;&quot; face=&quot;Helvetica&quot;&gt;AWS S3 Bucket&lt;/font&gt;" style="text;html=1;align=center;verticalAlign=middle;resizable=0;points=[];autosize=1;strokeColor=none;fillColor=none;fontFamily=ArialMT;fontStyle=0;fontSize=12;fontSource=https%3A%2F%2Fgithub.com%2Fnord-lancer%2Fkaggle-dataset-to-aws-glue-table%2Fblob%2Fmain%2Fdiagrams%2Ffonts%2FArial%2FArialMT.woff;" parent="9VVeeTWKTFK5gmpBHJWq-23" vertex="1">
          <mxGeometry y="78" width="110" height="30" as="geometry" />
        </mxCell>
        <mxCell id="9VVeeTWKTFK5gmpBHJWq-24" value="" style="group" parent="CS1avsgJ7B1qZROQorwI-1" vertex="1" connectable="0">
          <mxGeometry x="390" y="240" width="90" height="108" as="geometry" />
        </mxCell>
        <mxCell id="9VVeeTWKTFK5gmpBHJWq-10" value="" style="sketch=0;points=[[0,0,0],[0.25,0,0],[0.5,0,0],[0.75,0,0],[1,0,0],[0,1,0],[0.25,1,0],[0.5,1,0],[0.75,1,0],[1,1,0],[0,0.25,0],[0,0.5,0],[0,0.75,0],[1,0.25,0],[1,0.5,0],[1,0.75,0]];outlineConnect=0;fontColor=#232F3E;fillColor=#8C4FFF;strokeColor=#ffffff;dashed=0;verticalLabelPosition=bottom;verticalAlign=top;align=center;html=1;fontSize=12;fontStyle=0;aspect=fixed;shape=mxgraph.aws4.resourceIcon;resIcon=mxgraph.aws4.athena;" parent="9VVeeTWKTFK5gmpBHJWq-24" vertex="1">
          <mxGeometry x="6" width="78" height="78" as="geometry" />
        </mxCell>
        <mxCell id="9VVeeTWKTFK5gmpBHJWq-11" value="&lt;font style=&quot;font-size: 12px;&quot; face=&quot;Helvetica&quot;&gt;AWS Athena&lt;/font&gt;" style="text;html=1;align=center;verticalAlign=middle;resizable=0;points=[];autosize=1;strokeColor=none;fillColor=none;fontFamily=ArialMT;fontStyle=0;fontSize=12;fontSource=https%3A%2F%2Fgithub.com%2Fnord-lancer%2Fkaggle-dataset-to-aws-glue-table%2Fblob%2Fmain%2Fdiagrams%2Ffonts%2FArial%2FArialMT.woff;" parent="9VVeeTWKTFK5gmpBHJWq-24" vertex="1">
          <mxGeometry y="78" width="90" height="30" as="geometry" />
        </mxCell>
        <mxCell id="CS1avsgJ7B1qZROQorwI-4" value="Create Glue&lt;div&gt;Data Catalog table&lt;/div&gt;&lt;div&gt;on top of Dataset&lt;/div&gt;" style="text;html=1;align=center;verticalAlign=middle;resizable=0;points=[];autosize=1;strokeColor=none;fillColor=none;" parent="CS1avsgJ7B1qZROQorwI-1" vertex="1">
          <mxGeometry x="327" y="153" width="117" height="55" as="geometry" />
        </mxCell>
        <mxCell id="9VVeeTWKTFK5gmpBHJWq-25" value="" style="group" parent="CS1avsgJ7B1qZROQorwI-1" vertex="1" connectable="0">
          <mxGeometry x="513" y="240" width="150" height="108" as="geometry" />
        </mxCell>
        <mxCell id="9VVeeTWKTFK5gmpBHJWq-12" value="" style="sketch=0;outlineConnect=0;fontColor=#232F3E;gradientColor=none;fillColor=#8C4FFF;strokeColor=none;dashed=0;verticalLabelPosition=bottom;verticalAlign=top;align=center;html=1;fontSize=12;fontStyle=0;aspect=fixed;pointerEvents=1;shape=mxgraph.aws4.glue_data_catalog;" parent="9VVeeTWKTFK5gmpBHJWq-25" vertex="1">
          <mxGeometry x="39" width="72" height="78" as="geometry" />
        </mxCell>
        <mxCell id="9VVeeTWKTFK5gmpBHJWq-13" value="&lt;font style=&quot;font-size: 12px;&quot; face=&quot;Helvetica&quot;&gt;AWS Glue Data Catalog&lt;/font&gt;" style="text;html=1;align=center;verticalAlign=middle;resizable=0;points=[];autosize=1;strokeColor=none;fillColor=none;fontFamily=ArialMT;fontStyle=0;fontSize=12;fontSource=https%3A%2F%2Fgithub.com%2Fnord-lancer%2Fkaggle-dataset-to-aws-glue-table%2Fblob%2Fmain%2Fdiagrams%2Ffonts%2FArial%2FArialMT.woff;" parent="9VVeeTWKTFK5gmpBHJWq-25" vertex="1">
          <mxGeometry y="78" width="150" height="30" as="geometry" />
        </mxCell>
        <mxCell id="9VVeeTWKTFK5gmpBHJWq-32" value="" style="edgeStyle=orthogonalEdgeStyle;html=1;endArrow=block;elbow=vertical;startArrow=none;endFill=1;strokeColor=#545B64;rounded=0;exitX=1;exitY=0.5;exitDx=0;exitDy=0;exitPerimeter=0;" parent="CS1avsgJ7B1qZROQorwI-1" source="9VVeeTWKTFK5gmpBHJWq-10" target="9VVeeTWKTFK5gmpBHJWq-12" edge="1">
          <mxGeometry width="100" relative="1" as="geometry">
            <mxPoint x="480" y="263" as="sourcePoint" />
            <mxPoint x="597" y="263" as="targetPoint" />
            <Array as="points" />
          </mxGeometry>
        </mxCell>
        <mxCell id="CS1avsgJ7B1qZROQorwI-2" value="Calls API" style="text;html=1;align=center;verticalAlign=middle;resizable=0;points=[];autosize=1;strokeColor=none;fillColor=none;" parent="1" vertex="1">
          <mxGeometry x="140" y="200" width="70" height="30" as="geometry" />
        </mxCell>
        <mxCell id="CS1avsgJ7B1qZROQorwI-5" value="" style="edgeStyle=orthogonalEdgeStyle;html=1;endArrow=block;elbow=vertical;startArrow=none;endFill=1;strokeColor=#545B64;rounded=0;" parent="1" source="9VVeeTWKTFK5gmpBHJWq-8" target="9VVeeTWKTFK5gmpBHJWq-3" edge="1">
          <mxGeometry width="100" relative="1" as="geometry">
            <mxPoint x="320" y="234.5" as="sourcePoint" />
            <mxPoint x="455" y="186" as="targetPoint" />
            <Array as="points" />
          </mxGeometry>
        </mxCell>
        <mxCell id="CS1avsgJ7B1qZROQorwI-6" value="Get Dataset" style="text;html=1;align=center;verticalAlign=middle;resizable=0;points=[];autosize=1;strokeColor=none;fillColor=none;" parent="1" vertex="1">
          <mxGeometry x="451" y="121" width="82" height="26" as="geometry" />
        </mxCell>
      </root>
    </mxGraphModel>
  </diagram>
</mxfile>
